<svg width="72" height="40" viewBox="0 0 72 40" fill="none" xmlns="http://www.w3.org/2000/svg">
<g clip-path="url(#clip0)">
<path d="M4.83826 35.8841C4.85189 36.1308 4.81372 36.3776 4.72622 36.6086C4.63873 36.8397 4.50383 37.0499 4.33022 37.2256C3.95424 37.5615 3.46027 37.7342 2.95694 37.7059H0V28.0095H2.95694C3.2064 27.9967 3.45592 28.0337 3.69099 28.1182C3.92606 28.2027 4.142 28.333 4.32626 28.5017C4.49988 28.6791 4.6347 28.8907 4.72216 29.123C4.80963 29.3553 4.84781 29.6033 4.83429 29.8511L4.83826 35.8841ZM3.38162 35.642V30.0853C3.38162 29.5561 3.0985 29.2915 2.53225 29.2915H1.45267V36.4675H2.49256C3.08527 36.4675 3.38162 36.1924 3.38162 35.642Z" fill="#0E7DA0"/>
<path d="M9.92265 36.9399C9.9396 37.048 9.93077 37.1586 9.89688 37.2626C9.86298 37.3667 9.80498 37.4613 9.7276 37.5386C9.65022 37.616 9.55565 37.674 9.45159 37.7079C9.34754 37.7418 9.23695 37.7506 9.12884 37.7337H6.68391C6.5758 37.7506 6.46521 37.7418 6.36116 37.7079C6.2571 37.674 6.16253 37.616 6.08515 37.5386C6.00777 37.4613 5.94977 37.3667 5.91587 37.2626C5.88198 37.1586 5.87315 37.048 5.8901 36.9399V32.2247C5.87315 32.1165 5.88198 32.0059 5.91587 31.9019C5.94977 31.7978 6.00777 31.7033 6.08515 31.6259C6.16253 31.5485 6.2571 31.4905 6.36116 31.4566C6.46521 31.4227 6.5758 31.4139 6.68391 31.4308H9.12884C9.23695 31.4139 9.34754 31.4227 9.45159 31.4566C9.55565 31.4905 9.65022 31.5485 9.7276 31.6259C9.80498 31.7033 9.86298 31.7978 9.89688 31.9019C9.93077 32.0059 9.9396 32.1165 9.92265 32.2247V34.5307L9.52575 34.9276H7.2237V36.6819H8.5573V35.6301H9.92265V36.9399ZM8.56524 33.9948V32.4906H7.24354V33.9909L8.56524 33.9948Z" fill="#0E7DA0"/>
<path d="M14.9156 34.0663H13.4947V32.6335L12.3715 32.6573V37.7059H10.9664V31.4507H12.3834V31.6809L13.2566 31.5182C13.5472 31.4629 13.8419 31.4323 14.1377 31.4269C14.2434 31.4076 14.3521 31.4137 14.455 31.4447C14.5579 31.4756 14.6519 31.5306 14.7294 31.605C14.8069 31.6794 14.8656 31.7711 14.9008 31.8726C14.9359 31.9741 14.9464 32.0825 14.9315 32.1889L14.9156 34.0663Z" fill="#0E7DA0"/>
<path d="M19.7539 37.7059H18.3925V37.4876L17.4241 37.6384C17.1063 37.6904 16.7854 37.7209 16.4636 37.7297C16.3579 37.749 16.2491 37.7429 16.1463 37.7119C16.0434 37.681 15.9494 37.626 15.8719 37.5516C15.7944 37.4772 15.7356 37.3855 15.7005 37.284C15.6654 37.1825 15.6548 37.0741 15.6698 36.9677V34.7172C15.6528 34.6091 15.6616 34.4985 15.6955 34.3945C15.7294 34.2904 15.7874 34.1958 15.8648 34.1185C15.9422 34.0411 16.0368 33.9831 16.1408 33.9492C16.2449 33.9153 16.3555 33.9065 16.4636 33.9234H18.3806V32.5025H17.0669V33.3955H15.765V32.2048C15.7481 32.0967 15.7569 31.9861 15.7908 31.8821C15.8247 31.778 15.8827 31.6834 15.9601 31.6061C16.0375 31.5287 16.132 31.4707 16.2361 31.4368C16.3401 31.4029 16.4507 31.394 16.5588 31.411H18.9403C19.0485 31.3931 19.1595 31.4013 19.264 31.4349C19.3684 31.4685 19.4634 31.5265 19.541 31.6041C19.6186 31.6817 19.6766 31.7766 19.7102 31.8811C19.7437 31.9856 19.7519 32.0965 19.7341 32.2048L19.7539 37.7059ZM18.4084 36.5787V34.9038H17.0669V36.6343L18.4084 36.5787Z" fill="#0E7DA0"/>
<path d="M23.4729 37.7059H21.8853C21.777 37.7238 21.666 37.7156 21.5616 37.682C21.4571 37.6484 21.3621 37.5904 21.2845 37.5128C21.2069 37.4352 21.149 37.3403 21.1154 37.2358C21.0818 37.1313 21.0736 37.0204 21.0915 36.9121V32.6573H20.4406V31.4666H21.1113V29.7678H22.5243V31.4666H23.4173V32.6573H22.5045V36.5152H23.4531L23.4729 37.7059Z" fill="#0E7DA0"/>
<path d="M28.3111 36.9399C28.3281 37.048 28.3193 37.1586 28.2854 37.2626C28.2515 37.3667 28.1935 37.4613 28.1161 37.5386C28.0387 37.616 27.9441 37.674 27.8401 37.7079C27.736 37.7418 27.6254 37.7506 27.5173 37.7337H25.0605C24.9524 37.7506 24.8418 37.7418 24.7377 37.7079C24.6337 37.674 24.5391 37.616 24.4617 37.5386C24.3844 37.4613 24.3264 37.3667 24.2925 37.2626C24.2586 37.1586 24.2497 37.048 24.2667 36.9399V32.2247C24.2497 32.1165 24.2586 32.0059 24.2925 31.9019C24.3264 31.7978 24.3844 31.7033 24.4617 31.6259C24.5391 31.5485 24.6337 31.4905 24.7377 31.4566C24.8418 31.4227 24.9524 31.4139 25.0605 31.4308H27.5094C27.6175 31.4139 27.7281 31.4227 27.8321 31.4566C27.9362 31.4905 28.0308 31.5485 28.1082 31.6259C28.1855 31.7033 28.2435 31.7978 28.2774 31.9019C28.3113 32.0059 28.3202 32.1165 28.3032 32.2247V34.5307L27.9063 34.9276H25.6043V36.6819H26.9379V35.6301H28.2953L28.3111 36.9399ZM26.9537 33.9948V32.4906H25.6201V33.9909L26.9537 33.9948Z" fill="#0E7DA0"/>
<path d="M33.5185 37.7059H32.0063L30.76 34.8402V37.7059H29.3391V28.0095H30.76V33.8361L31.8833 31.4547H33.3637V31.4785L31.919 34.3243L33.5185 37.7059Z" fill="#0E7DA0"/>
<path d="M40.1112 37.7059H37.0114V28.0095H37.8726V36.9518H40.1112V37.7059Z" fill="#0E7DA0"/>
<path d="M44.6597 37.0113C44.6723 37.1062 44.6628 37.2027 44.6318 37.2933C44.6009 37.3839 44.5493 37.4661 44.4813 37.5334C44.4132 37.6007 44.3304 37.6513 44.2395 37.6813C44.1485 37.7112 44.0519 37.7196 43.9572 37.7059H41.8853C41.7903 37.7194 41.6934 37.7104 41.6024 37.6798C41.5114 37.6491 41.4288 37.5976 41.3613 37.5293C41.2938 37.4611 41.2432 37.3779 41.2136 37.2866C41.184 37.1953 41.1761 37.0983 41.1907 37.0034V32.3794C41.1761 32.2845 41.184 32.1875 41.2136 32.0962C41.2432 32.0049 41.2938 31.9217 41.3613 31.8535C41.4288 31.7852 41.5114 31.7337 41.6024 31.703C41.6934 31.6723 41.7903 31.6634 41.8853 31.6769H43.9572C44.0527 31.6629 44.1501 31.6714 44.2417 31.7017C44.3334 31.7321 44.4166 31.7834 44.4849 31.8517C44.5531 31.92 44.6045 32.0032 44.6348 32.0948C44.6652 32.1865 44.6737 32.2839 44.6597 32.3794V37.0113ZM43.8341 36.9875V32.4032H42.0163V36.9875H43.8341Z" fill="#0E7DA0"/>
<path d="M49.4344 39.2935C49.4484 39.389 49.4399 39.4864 49.4096 39.5781C49.3792 39.6697 49.3279 39.753 49.2596 39.8212C49.1913 39.8895 49.1081 39.9408 49.0165 39.9712C48.9248 40.0015 48.8274 40.01 48.7319 39.996H46.7712C46.2949 39.996 46.0567 39.701 46.0567 39.1109C46.0567 39.0395 46.0567 38.935 46.0567 38.7974C46.0567 38.6584 46.0567 38.5592 46.0567 38.4957H46.8505V39.2895H48.5731V37.7059H47.2157C47.0457 37.7106 46.8766 37.6803 46.7188 37.6167C46.5611 37.5532 46.4181 37.4579 46.2988 37.3368C46.178 37.2149 46.0834 37.0697 46.0206 36.91C45.9578 36.7503 45.9282 36.5795 45.9337 36.408V32.8875C45.9233 32.5609 46.0383 32.2428 46.2552 31.9984C46.3622 31.8805 46.4936 31.7875 46.6403 31.7258C46.7871 31.6641 46.9455 31.6352 47.1046 31.6412C47.1998 31.6412 47.6893 31.71 48.5731 31.8476V31.6809H49.3907L49.4344 39.2935ZM48.6168 36.9795V32.431C47.9632 32.3887 47.5835 32.3675 47.4777 32.3675C47.3839 32.3547 47.2885 32.3639 47.199 32.3944C47.1094 32.425 47.0283 32.476 46.962 32.5435C46.8957 32.6109 46.846 32.693 46.817 32.783C46.7881 32.873 46.7805 32.9686 46.795 33.0621V36.2929C46.7805 36.3864 46.7881 36.482 46.817 36.572C46.846 36.662 46.8957 36.7441 46.962 36.8115C47.0283 36.879 47.1094 36.93 47.199 36.9606C47.2885 36.9911 47.3839 37.0003 47.4777 36.9875L48.6168 36.9795Z" fill="#0E7DA0"/>
<path d="M51.665 30.3592H50.8275V29.3153H51.665V30.3592ZM51.665 37.7138H50.8712V31.6809H51.665V37.7138Z" fill="#0E7DA0"/>
<path d="M56.3048 37.0113C56.3175 37.1062 56.308 37.2027 56.277 37.2933C56.2461 37.3839 56.1945 37.4661 56.1264 37.5334C56.0583 37.6007 55.9756 37.6513 55.8846 37.6813C55.7937 37.7112 55.6971 37.7196 55.6023 37.7059H53.7091C53.6136 37.7199 53.5161 37.7114 53.4245 37.6811C53.3329 37.6507 53.2496 37.5994 53.1814 37.5311C53.1131 37.4628 53.0618 37.3796 53.0314 37.288C53.0011 37.1963 52.9926 37.0989 53.0066 37.0034V35.642H53.8004V36.9994H55.4674V35.8087L53.3082 34.0425C53.21 33.9669 53.1309 33.8694 53.0771 33.7577C53.0233 33.6461 52.9965 33.5234 52.9986 33.3995V32.3794C52.9846 32.2839 52.9931 32.1865 53.0235 32.0948C53.0538 32.0032 53.1052 31.92 53.1734 31.8517C53.2417 31.7834 53.3249 31.7321 53.4166 31.7017C53.5082 31.6714 53.6057 31.6629 53.7012 31.6769H55.5666C55.6621 31.6629 55.7596 31.6714 55.8512 31.7017C55.9428 31.7321 56.0261 31.7834 56.0943 31.8517C56.1626 31.92 56.2139 32.0032 56.2443 32.0948C56.2746 32.1865 56.2831 32.2839 56.2691 32.3794V33.5701H55.4753V32.3794H53.8083V33.4352L55.9834 35.2014C56.083 35.279 56.1628 35.3793 56.2159 35.4939C56.2691 35.6084 56.2941 35.7341 56.289 35.8603L56.3048 37.0113Z" fill="#0E7DA0"/>
<path d="M59.7856 37.7059H58.5949C58.4999 37.7194 58.403 37.7105 58.312 37.6798C58.221 37.6491 58.1384 37.5976 58.0709 37.5293C58.0034 37.4611 57.9528 37.3779 57.9232 37.2866C57.8936 37.1953 57.8858 37.0983 57.9003 37.0034V32.4033H57.174V31.6809H57.9003V29.7996H58.6942V31.6769H59.7499V32.4033H58.7418V36.9875H59.7976L59.7856 37.7059Z" fill="#0E7DA0"/>
<path d="M61.7106 30.3592H60.8732V29.3153H61.7106V30.3592ZM61.7106 37.7138H60.9168V31.6809H61.7106V37.7138Z" fill="#0E7DA0"/>
<path d="M66.4497 37.0113C66.4629 37.1056 66.454 37.2017 66.4238 37.292C66.3935 37.3823 66.3427 37.4643 66.2754 37.5316C66.2081 37.599 66.126 37.6498 66.0357 37.68C65.9455 37.7102 65.8494 37.7191 65.7551 37.7059H63.7944C63.7007 37.7177 63.6055 37.7079 63.5162 37.677C63.427 37.6462 63.346 37.5952 63.2796 37.5281C63.2132 37.4609 63.1632 37.3794 63.1334 37.2897C63.1036 37.2001 63.0948 37.1049 63.1077 37.0113V32.3794C63.0931 32.2845 63.101 32.1875 63.1306 32.0962C63.1602 32.0049 63.2108 31.9218 63.2783 31.8535C63.3458 31.7852 63.4284 31.7337 63.5194 31.703C63.6103 31.6724 63.7072 31.6634 63.8023 31.6769H65.763C65.8581 31.6634 65.955 31.6724 66.046 31.703C66.137 31.7337 66.2195 31.7852 66.287 31.8535C66.3545 31.9218 66.4051 32.0049 66.4347 32.0962C66.4643 32.1875 66.4722 32.2845 66.4576 32.3794V33.5702H65.6638V32.3794H63.9531V36.9875H65.6638V35.642H66.4576L66.4497 37.0113Z" fill="#0E7DA0"/>
<path d="M71.0459 37.0113C71.0587 37.1066 71.0491 37.2035 71.0179 37.2945C70.9868 37.3854 70.9348 37.4679 70.8663 37.5353C70.7977 37.6026 70.7144 37.6532 70.623 37.6828C70.5315 37.7124 70.4344 37.7203 70.3394 37.7059H68.4461C68.3506 37.7199 68.2532 37.7114 68.1616 37.6811C68.0699 37.6507 67.9867 37.5994 67.9184 37.5311C67.8502 37.4629 67.7988 37.3796 67.7685 37.288C67.7381 37.1963 67.7296 37.0989 67.7436 37.0034V35.642H68.5374V36.9994H70.2044V35.8087L68.0453 34.0425C67.9471 33.9669 67.8679 33.8694 67.8142 33.7577C67.7604 33.6461 67.7335 33.5234 67.7357 33.3995V32.3794C67.7217 32.2839 67.7302 32.1865 67.7605 32.0949C67.7909 32.0032 67.8422 31.92 67.9105 31.8517C67.9787 31.7835 68.062 31.7321 68.1536 31.7018C68.2452 31.6714 68.3427 31.6629 68.4382 31.6769H70.3037C70.4021 31.6557 70.5041 31.6587 70.6011 31.6858C70.698 31.7129 70.7869 31.7633 70.86 31.8325C70.9331 31.9017 70.9883 31.9876 71.0206 32.0829C71.053 32.1783 71.0617 32.28 71.0459 32.3794V33.5702H70.2521V32.3794H68.5851V33.4352L70.7601 35.2014C70.8598 35.279 70.9395 35.3793 70.9927 35.4939C71.0458 35.6085 71.0709 35.7341 71.0657 35.8603L71.0459 37.0113Z" fill="#0E7DA0"/>
<path d="M34.9554 6.14011V8.29133L32.2247 5.78687C32.1072 5.67847 32.0251 5.53713 31.9893 5.38135C31.9535 5.22556 31.9655 5.06258 32.0239 4.91375C32.0822 4.76492 32.1841 4.63716 32.3162 4.54721C32.4484 4.45726 32.6046 4.4093 32.7645 4.40961C32.9617 4.41121 33.1513 4.4862 33.2963 4.61997L34.9554 6.14011Z" fill="#0E7DA0"/>
<path d="M34.9553 16.9438V18.8529L31.8555 20.9208C31.8095 20.9507 31.7564 20.9677 31.7016 20.97C31.6468 20.9723 31.5924 20.9598 31.544 20.9338C31.4957 20.9079 31.4553 20.8693 31.427 20.8224C31.3987 20.7754 31.3836 20.7216 31.3832 20.6668V12.304H29.7678C29.6236 12.304 29.4853 12.2467 29.3833 12.1448C29.2813 12.0428 29.224 11.9045 29.224 11.7603C29.224 11.6161 29.2813 11.4778 29.3833 11.3758C29.4853 11.2738 29.6236 11.2165 29.7678 11.2165H31.3991V10.6728H28.1802C28.0356 10.6728 27.8969 10.6156 27.7943 10.5137C27.6917 10.4119 27.6335 10.2736 27.6324 10.129C27.6319 10.0569 27.6457 9.98546 27.6731 9.91877C27.7004 9.85208 27.7407 9.79148 27.7917 9.74052C27.8427 9.68955 27.9033 9.64923 27.9699 9.62189C28.0366 9.59455 28.1081 9.58074 28.1802 9.58127H31.3991V9.02163H26.5926C26.5147 9.03321 26.4352 9.02786 26.3596 9.00595C26.284 8.98404 26.214 8.94608 26.1543 8.89466C26.0947 8.84324 26.0469 8.77957 26.0141 8.70799C25.9813 8.63641 25.9643 8.5586 25.9643 8.47986C25.9643 8.40112 25.9813 8.32331 26.0141 8.25173C26.0469 8.18015 26.0947 8.11648 26.1543 8.06506C26.214 8.01364 26.284 7.97568 26.3596 7.95377C26.4352 7.93186 26.5147 7.92651 26.5926 7.93809H31.3832V7.81505C31.3827 7.7143 31.4021 7.61446 31.4404 7.52128C31.4787 7.4281 31.5351 7.34345 31.6064 7.27221C31.6776 7.20098 31.7623 7.14457 31.8555 7.10626C31.9486 7.06795 32.0485 7.0485 32.1492 7.04902H32.2207C32.4214 7.05006 32.6136 7.13027 32.7556 7.27221C32.8975 7.41416 32.9777 7.60637 32.9787 7.80711V18.2576L34.9553 16.9438Z" fill="#0E7DA0"/>
<path d="M42.2148 14.0147L37.3368 17.2653V15.3562L40.4207 13.3003L37.3368 10.4743V8.33499L42.3021 12.8835C42.3803 12.9586 42.441 13.0502 42.4796 13.1515C42.5183 13.2529 42.534 13.3616 42.5257 13.4697C42.5173 13.5779 42.4851 13.6829 42.4313 13.7771C42.3776 13.8713 42.3036 13.9525 42.2148 14.0147Z" fill="#0E7DA0"/>
<path d="M42.4966 20.1389C42.4966 20.36 42.4088 20.572 42.2524 20.7283C42.0961 20.8846 41.8841 20.9724 41.6631 20.9724H35.8564C35.7227 20.9724 35.5945 20.9193 35.4999 20.8248C35.4054 20.7302 35.3523 20.602 35.3523 20.4683V5.15974C35.3523 4.94921 35.4359 4.74731 35.5848 4.59844C35.7337 4.44957 35.9356 4.36594 36.1461 4.36594C36.3566 4.36594 36.5585 4.44957 36.7074 4.59844C36.8563 4.74731 36.9399 4.94921 36.9399 5.15974V19.3054H41.675C41.894 19.3085 42.1029 19.3977 42.2567 19.5537C42.4104 19.7097 42.4966 19.9199 42.4966 20.1389Z" fill="#0E7DA0"/>
<path d="M35.1023 26.5926C32.4725 26.5926 29.9018 25.8128 27.7152 24.3518C25.5287 22.8907 23.8245 20.8141 22.8181 18.3846C21.8117 15.955 21.5484 13.2815 22.0615 10.7023C22.5745 8.12309 23.8408 5.75392 25.7004 3.8944C27.5599 2.03488 29.9291 0.768531 32.5083 0.25549C35.0875 -0.25755 37.761 0.00576103 40.1905 1.01213C42.6201 2.01849 44.6967 3.72271 46.1577 5.90927C47.6187 8.09584 48.3986 10.6665 48.3986 13.2963C48.3944 16.8214 46.9921 20.2009 44.4995 22.6936C42.0069 25.1862 38.6274 26.5884 35.1023 26.5926ZM35.1023 1.19072C32.708 1.19072 30.3675 1.9007 28.3768 3.23088C26.386 4.56105 24.8344 6.45169 23.9182 8.66369C23.0019 10.8757 22.7622 13.3097 23.2293 15.658C23.6964 18.0062 24.8493 20.1632 26.5423 21.8562C28.2353 23.5492 30.3923 24.7022 32.7406 25.1693C35.0888 25.6364 37.5229 25.3966 39.7349 24.4804C41.9469 23.5641 43.8375 22.0125 45.1677 20.0218C46.4979 18.031 47.2078 15.6906 47.2078 13.2963C47.2047 10.0867 45.9283 7.0094 43.6587 4.73984C41.3892 2.47029 38.3119 1.19387 35.1023 1.19072Z" fill="#0E7DA0"/>
</g>
<defs>
<clipPath id="clip0">
<rect width="71.0379" height="40" fill="white"/>
</clipPath>
</defs>
</svg>
