<svg width="16" height="10" viewBox="0 0 16 10" fill="none" xmlns="http://www.w3.org/2000/svg">
<path d="M15.9033 4.61979C14.397 1.86432 11.4147 0 8 0C4.58527 0 1.60221 1.86563 0.0966517 4.62005C0.0331076 4.73789 0 4.86809 0 5.00013C0 5.13217 0.0331076 5.26237 0.0966517 5.38021C1.60304 8.13568 4.58527 10 8 10C11.4147 10 14.3978 8.13437 15.9033 5.37995C15.9669 5.26211 16 5.13191 16 4.99987C16 4.86783 15.9669 4.73763 15.9033 4.61979ZM8 8.75C7.20887 8.75 6.43551 8.53007 5.77771 8.11801C5.11992 7.70596 4.60723 7.12029 4.30447 6.43506C4.00172 5.74984 3.92251 4.99584 4.07685 4.26841C4.23119 3.54098 4.61216 2.8728 5.17157 2.34835C5.73098 1.8239 6.44371 1.46675 7.21964 1.32206C7.99556 1.17736 8.79983 1.25162 9.53074 1.53545C10.2616 1.81928 10.8864 2.29993 11.3259 2.91661C11.7654 3.5333 12 4.25832 12 5C12.0003 5.49252 11.897 5.98027 11.696 6.43535C11.4951 6.89043 11.2005 7.30392 10.829 7.65218C10.4575 8.00045 10.0165 8.27667 9.53104 8.46504C9.04562 8.65341 8.52536 8.75024 8 8.75ZM8 2.5C7.76198 2.50312 7.5255 2.53632 7.29694 2.5987C7.48534 2.83872 7.57574 3.13408 7.55177 3.43124C7.52779 3.72839 7.39101 4.00764 7.16625 4.21836C6.94148 4.42908 6.64361 4.5573 6.32665 4.57978C6.00969 4.60226 5.69463 4.51751 5.43861 4.34089C5.29282 4.84442 5.31914 5.37814 5.51385 5.86693C5.70857 6.35571 6.06188 6.77494 6.52406 7.06561C6.98623 7.35629 7.534 7.50377 8.09027 7.48729C8.64653 7.47082 9.18328 7.29122 9.62497 6.97378C10.0667 6.65634 10.391 6.21703 10.5525 5.7177C10.7139 5.21838 10.7042 4.68416 10.5248 4.19025C10.3454 3.69635 10.0053 3.26761 9.5524 2.9644C9.09948 2.66119 8.55654 2.49877 8 2.5Z" fill="black"/>
</svg>
