<svg width="14" height="18" viewBox="0 0 14 18" fill="none" xmlns="http://www.w3.org/2000/svg">
<path d="M7 0C4.58763 0 2.625 1.96263 2.625 4.375V7H1.75C1.28587 7 0.840752 7.18437 0.512563 7.51256C0.184374 7.84075 0 8.28587 0 8.75V15.75C0 16.2141 0.184374 16.6592 0.512563 16.9874C0.840752 17.3156 1.28587 17.5 1.75 17.5H12.25C12.7141 17.5 13.1592 17.3156 13.4874 16.9874C13.8156 16.6592 14 16.2141 14 15.75V8.75C14 8.28587 13.8156 7.84075 13.4874 7.51256C13.1592 7.18437 12.7141 7 12.25 7H11.375V4.375C11.375 1.96263 9.41237 0 7 0ZM4.375 4.375C4.375 2.92775 5.55275 1.75 7 1.75C8.44725 1.75 9.625 2.92775 9.625 4.375V7H4.375V4.375ZM7.875 13.7576V15.75H6.125V13.7576C5.81909 13.5824 5.57345 13.3187 5.42048 13.0011C5.2675 12.6835 5.21437 12.327 5.2681 11.9785C5.32182 11.6301 5.47988 11.3062 5.72142 11.0494C5.96296 10.7927 6.27665 10.6151 6.62113 10.5402C6.87699 10.4837 7.14229 10.4853 7.39746 10.5449C7.65264 10.6045 7.89118 10.7206 8.09549 10.8847C8.2998 11.0488 8.46467 11.2567 8.57795 11.493C8.69123 11.7292 8.75002 11.988 8.75 12.25C8.7495 12.556 8.66835 12.8565 8.51474 13.1212C8.36112 13.3859 8.14047 13.6054 7.875 13.7576Z" fill="black"/>
</svg>
