<svg width="16" height="14" viewBox="0 0 16 14" fill="none" xmlns="http://www.w3.org/2000/svg">
<path d="M15.6969 4.32273C15.8187 4.21705 16 4.31591 16 4.48295V11.4545C16 12.358 15.3281 13.0909 14.5 13.0909H1.5C0.671875 13.0909 0 12.358 0 11.4545V4.48636C0 4.31591 0.178125 4.22045 0.303125 4.32614C1.00312 4.91932 1.93125 5.67273 5.11875 8.19886C5.77813 8.72386 6.89062 9.82841 8 9.82159C9.11563 9.83182 10.25 8.70341 10.8844 8.19886C14.0719 5.67273 14.9969 4.91591 15.6969 4.32273ZM8 8.72727C8.725 8.74091 9.76875 7.73182 10.2937 7.31591C14.4406 4.03295 14.7562 3.74659 15.7125 2.92841C15.8937 2.775 16 2.53636 16 2.28409V1.63636C16 0.732955 15.3281 0 14.5 0H1.5C0.671875 0 0 0.732955 0 1.63636V2.28409C0 2.53636 0.10625 2.77159 0.2875 2.92841C1.24375 3.74318 1.55938 4.03295 5.70625 7.31591C6.23125 7.73182 7.275 8.74091 8 8.72727Z" fill="black"/>
</svg>
